<svg width="42" height="42" viewBox="0 0 42 42" fill="none" xmlns="http://www.w3.org/2000/svg">
<circle cx="20.7254" cy="20.7254" r="20.7254" fill="white"/>
<path d="M25.0431 13.3581L28.0979 16.4129L25.0431 19.4677L21.9883 16.4129L25.0431 13.3581ZM16.7745 13.8762V18.194H12.4567V13.8762H16.7745ZM27.569 24.6707V28.9885H23.2512V24.6707H27.569ZM16.7745 24.6707V28.9885H12.4567V24.6707H16.7745ZM25.0431 10.3032L18.9334 16.4021L25.0431 22.5118L31.1528 16.4021L25.0431 10.3032ZM18.9334 11.7173H10.2979V20.3529H18.9334V11.7173ZM29.7279 22.5118H21.0923V31.1474H29.7279V22.5118ZM18.9334 22.5118H10.2979V31.1474H18.9334V22.5118Z" fill="#4547A0"/>
</svg>
