<svg width="87" height="15" viewBox="0 0 87 15" fill="none" xmlns="http://www.w3.org/2000/svg">
<path d="M6.47469 2.92705C6.77404 2.00574 8.07745 2.00574 8.3768 2.92705L8.86841 4.44008C9.00229 4.8521 9.38624 5.13106 9.81947 5.13106H11.4104C12.3791 5.13106 12.7819 6.37068 11.9981 6.94008L10.7111 7.87518C10.3606 8.12983 10.2139 8.58119 10.3478 8.99322L10.8394 10.5062C11.1388 11.4276 10.0843 12.1937 9.30059 11.6243L8.01353 10.6892C7.66304 10.4345 7.18844 10.4345 6.83796 10.6892L5.5509 11.6243C4.76719 12.1937 3.71271 11.4276 4.01206 10.5062L4.50367 8.99322C4.63754 8.58119 4.49089 8.12983 4.1404 7.87518L2.85334 6.94008C2.06963 6.37068 2.4724 5.13106 3.44112 5.13106H5.03202C5.46524 5.13106 5.8492 4.8521 5.98307 4.44008L6.47469 2.92705Z" fill="#FFC700"/>
<path d="M27.7618 2.92705C28.0611 2.00574 29.3646 2.00574 29.6639 2.92705L30.1555 4.44008C30.2894 4.8521 30.6734 5.13106 31.1066 5.13106H32.6975C33.6662 5.13106 34.069 6.37068 33.2853 6.94008L31.9982 7.87518C31.6477 8.12983 31.5011 8.58119 31.6349 8.99322L32.1265 10.5062C32.4259 11.4276 31.3714 12.1937 30.5877 11.6243L29.3006 10.6892C28.9502 10.4345 28.4756 10.4345 28.1251 10.6892L26.838 11.6243C26.0543 12.1937 24.9998 11.4276 25.2992 10.5062L25.7908 8.99322C25.9247 8.58119 25.778 8.12983 25.4275 7.87518L24.1405 6.94008C23.3567 6.37068 23.7595 5.13106 24.7282 5.13106H26.3191C26.7524 5.13106 27.1363 4.8521 27.2702 4.44008L27.7618 2.92705Z" fill="#FFC700"/>
<path d="M49.0489 2.92705C49.3483 2.00574 50.6517 2.00574 50.951 2.92705L51.4426 4.44008C51.5765 4.8521 51.9605 5.13106 52.3937 5.13106H53.9846C54.9533 5.13106 55.3561 6.37068 54.5724 6.94008L53.2853 7.87518C52.9348 8.12983 52.7882 8.58119 52.922 8.99322L53.4136 10.5062C53.713 11.4276 52.6585 12.1937 51.8748 11.6243L50.5877 10.6892C50.2373 10.4345 49.7627 10.4345 49.4122 10.6892L48.1251 11.6243C47.3414 12.1937 46.2869 11.4276 46.5863 10.5062L47.0779 8.99322C47.2118 8.58119 47.0651 8.12983 46.7146 7.87518L45.4276 6.94008C44.6438 6.37068 45.0466 5.13106 46.0153 5.13106H47.6062C48.0395 5.13106 48.4234 4.8521 48.5573 4.44008L49.0489 2.92705Z" fill="#FFC700"/>
<path d="M70.3361 2.92705C70.6355 2.00574 71.9389 2.00574 72.2382 2.92705L72.7299 4.44008C72.8637 4.8521 73.2477 5.13106 73.6809 5.13106H75.2718C76.2405 5.13106 76.6433 6.37068 75.8596 6.94008L74.5725 7.87518C74.222 8.12983 74.0754 8.58119 74.2093 8.99322L74.7009 10.5062C75.0002 11.4276 73.9458 12.1937 73.162 11.6243L71.875 10.6892C71.5245 10.4345 71.0499 10.4345 70.6994 10.6892L69.4124 11.6243C68.6286 12.1937 67.5742 11.4276 67.8735 10.5062L68.3651 8.99322C68.499 8.58119 68.3523 8.12983 68.0018 7.87518L66.7148 6.94008C65.9311 6.37068 66.3339 5.13106 67.3026 5.13106H68.8935C69.3267 5.13106 69.7106 4.8521 69.8445 4.44008L70.3361 2.92705Z" fill="#FFC700"/>
<path d="M85.6528 2.37869C85.8034 1.91534 86.4855 2.01302 86.5 2.5L86.4257 5.13106V8V9.7526C86.4257 10.0727 86.2725 10.3735 86.0135 10.5616L84.5509 11.6243C83.7671 12.1937 82.7127 11.4276 83.012 10.5062L83.5036 8.99322C83.6375 8.58119 83.4908 8.12983 83.1404 7.87518L81.8533 6.94008C81.0696 6.37068 81.4724 5.13106 82.4411 5.13106H84.1541C84.5145 5.13106 84.8339 4.89899 84.9453 4.55623L85.6528 2.37869Z" fill="#FFC700"/>
</svg>
