<svg width="19" height="19" viewBox="0 0 19 19" fill="none" xmlns="http://www.w3.org/2000/svg">
<path d="M13.2549 11.755H12.4649L12.1849 11.485C13.1649 10.345 13.7549 8.865 13.7549 7.255C13.7549 3.665 10.8449 0.755005 7.25488 0.755005C3.66488 0.755005 0.754883 3.665 0.754883 7.255C0.754883 10.845 3.66488 13.755 7.25488 13.755C8.86488 13.755 10.3449 13.165 11.4849 12.185L11.7549 12.465V13.255L16.7549 18.245L18.2449 16.755L13.2549 11.755ZM7.25488 11.755C4.76488 11.755 2.75488 9.745 2.75488 7.255C2.75488 4.76501 4.76488 2.755 7.25488 2.755C9.74488 2.755 11.7549 4.76501 11.7549 7.255C11.7549 9.745 9.74488 11.755 7.25488 11.755Z" fill="white"/>
</svg>
