<svg width="11" height="10" viewBox="0 0 11 10" fill="none" xmlns="http://www.w3.org/2000/svg">
<path d="M4.33614 0.927052C4.63549 0.00574088 5.9389 0.00573897 6.23825 0.92705L6.72986 2.44008C6.86374 2.8521 7.24769 3.13106 7.68092 3.13106H9.27181C10.2405 3.13106 10.6433 4.37068 9.8596 4.94008L8.57254 5.87518C8.22205 6.12983 8.07539 6.58119 8.20927 6.99322L8.70088 8.50624C9.00023 9.42755 7.94575 10.1937 7.16204 9.62428L5.87498 8.68918C5.52449 8.43453 5.04989 8.43453 4.69941 8.68917L3.41235 9.62428C2.62864 10.1937 1.57416 9.42756 1.87351 8.50624L2.36512 6.99322C2.49899 6.58119 2.35234 6.12983 2.00185 5.87518L0.714791 4.94008C-0.0689225 4.37068 0.333851 3.13106 1.30257 3.13106H2.89347C3.32669 3.13106 3.71065 2.8521 3.84452 2.44008L4.33614 0.927052Z" fill="#FFC700"/>
</svg>
